Coordinates
version=1
nRows=7
nColumns=63
inDegrees=yes

Units are S.I. units (second, meters, Newtons, ...)
If the header above contains a line with 'inDegrees', this indicates whether rotational values are in degrees (yes) or radians (no).

endheader
time	pelvis_tilt	pelvis_list	pelvis_rotation	pelvis_tx	pelvis_ty	pelvis_tz	hip_flexion_r	hip_adduction_r	hip_rotation_r	knee_angle_r	knee_angle_r_beta	ankle_angle_r	subtalar_angle_r	mtp_angle_r	hip_flexion_l	hip_adduction_l	hip_rotation_l	knee_angle_l	knee_angle_l_beta	ankle_angle_l	subtalar_angle_l	mtp_angle_l	L5_S1_Flex_Ext	L5_S1_Lat_Bending	L5_S1_axial_rotation	L4_L5_Flex_Ext	L4_L5_Lat_Bending	L4_L5_axial_rotation	L3_L4_Flex_Ext	L3_L4_Lat_Bending	L3_L4_axial_rotation	L2_L3_Flex_Ext	L2_L3_Lat_Bending	L2_L3_axial_rotation	L1_L2_Flex_Ext	L1_L2_Lat_Bending	L1_L2_axial_rotation	L1_T12_Flex_Ext	L1_T12_Lat_Bending	L1_T12_axial_rotation	Abs_r3	Abs_r2	Abs_r1	Abs_t1	Abs_t2	neck_flexion	neck_bending	neck_rotation	arm_flex_r	arm_add_r	arm_rot_r	elbow_flex_r	pro_sup_r	wrist_flex_r	wrist_dev_r	arm_flex_l	arm_add_l	arm_rot_l	elbow_flex_l	pro_sup_l	wrist_flex_l	wrist_dev_l
     23.63333333	     -1.60493003	     -1.56824579	     14.83864637	      2.77780113	      0.82339044	      0.33189473	     23.68396721	     -2.84363558	    -17.72955627	      8.49863056	      0.14832909	    -11.28832965	    -15.97788319	      0.00000000	    -10.84348454	     -5.00664880	     13.77752978	     15.52525272	      0.27096678	     19.49543163	     -3.33072723	      0.00000000	      0.02320548	      0.14598545	     -3.79855067	      0.04309490	      0.19416065	     -4.03596008	      0.03812428	      0.35494903	     -4.03596008	      0.02652154	      0.35494903	     -3.32373183	      0.02154861	      0.29769353	     -3.08632242	      0.01325961	      0.22613147	     -2.84891300	      0.16575442	      1.65141663	    -21.12639923	      0.00000000	      0.00000000	      0.00000000	      0.00000000	      0.00000000	    -12.27485964	     -8.32530184	      7.29523216	     36.03318990	     35.52897300	      0.00000000	      5.00000014	      4.57157834	     -6.32985588	     -5.98106192	     45.37598485	     45.66878130	      0.00000000	      5.00000014
     23.66666667	     -0.95124397	     -1.79038005	     15.06967506	      2.81065675	      0.82324943	      0.33667046	     22.57428184	     -1.67679732	    -17.42335746	     10.93349057	      0.19082541	     -9.90117170	    -17.39016654	      0.00000000	    -10.02402495	     -6.16970727	     11.42210804	     21.94208266	      0.38296159	     17.05995194	     -2.49077172	      0.00000000	      0.02365024	      0.16806939	     -3.82386655	      0.04392085	      0.22353229	     -4.06285821	      0.03885497	      0.40864392	     -4.06285821	      0.02702985	      0.40864392	     -3.34588323	      0.02196161	      0.34272711	     -3.10689157	      0.01351374	      0.26033949	     -2.86789991	      0.16893127	      1.90123459	    -21.26719858	      0.00000000	      0.00000000	      0.00000000	      0.00000000	      0.00000000	    -11.94930482	     -8.24399214	      7.30964442	     35.35044803	     35.46577623	      0.00000000	      5.00000014	      3.11890516	     -6.18452921	     -6.38987495	     44.65363191	     45.70959081	      0.00000000	      5.00000014
     23.70000000	     -0.31747352	     -2.05447024	     15.47593472	      2.84398958	      0.82497471	      0.34148627	     20.96973185	     -0.44100222	    -17.55602459	     13.05680240	      0.22788419	     -7.61660125	    -18.52944229	      0.00000000	     -8.26936833	     -8.14578601	      7.24924981	     29.11076233	      0.50807865	     13.01344270	      1.05462454	      0.00000000	      0.02195225	      0.16503525	     -3.79527241	      0.04076752	      0.21949688	     -4.03247694	      0.03606535	      0.40126670	     -4.03247694	      0.02508923	      0.40126670	     -3.32086336	      0.02038486	      0.33653988	     -3.08365884	      0.01254352	      0.25563960	     -2.84645431	      0.15680273	      1.86691173	    -21.10816659	      0.00000000	      0.00000000	      0.00000000	      0.00000000	      0.00000000	    -11.22489904	     -7.31642825	      6.16871830	     33.32963019	     35.09259024	      0.00000000	      5.00000014	      1.14960903	     -6.04267475	     -6.83209092	     43.76650614	     45.94522878	      0.00000000	      5.00000014
     23.73333333	      0.13003317	     -2.02890906	     15.14434419	      2.87640175	      0.82762292	      0.34642038	     19.21201017	      0.65963827	    -17.50464828	     14.73754427	      0.25721867	     -4.67315353	    -18.88169840	      0.00000000	     -5.94843686	     -8.78169160	      6.39348875	     36.43787945	      0.63596097	      6.44043178	     -1.55671056	      0.00000000	      0.01937491	      0.12309490	     -3.49294510	      0.03598114	      0.16371622	     -3.71125416	      0.03183104	      0.29929295	     -3.71125416	      0.02214358	      0.29929295	     -3.05632696	      0.01799154	      0.25101513	     -2.83801789	      0.01107082	      0.19067400	     -2.61970882	      0.13839303	      1.39247416	    -19.42671274	      0.00000000	      0.00000000	      0.00000000	      0.00000000	      0.00000000	    -10.51838451	     -5.34377513	      1.34286697	     30.90263977	     33.79967258	      0.00000000	      5.00000014	     -0.67370116	     -6.50049034	     -4.59851911	     42.31478007	     46.83147189	      0.00000000	      5.00000014
     23.76666667	      0.38411458	     -1.78039136	     14.60518798	      2.90683598	      0.83038141	      0.35122912	     17.30072614	      1.53285776	    -17.49192676	     15.69604843	      0.27394772	     -1.83548577	    -19.05614352	      0.00000000	     -2.75958599	     -8.58688958	      6.60207500	     43.76218040	      0.76379414	     -0.30719076	     -5.29338083	      0.00000000	      0.01797035	      0.06032941	     -3.08498343	      0.03337274	      0.08023812	     -3.27779490	      0.02952349	      0.14668494	     -3.27779490	      0.02053832	      0.14668494	     -2.69936050	      0.01668727	      0.12302374	     -2.50654904	      0.01026826	      0.09345026	     -2.31373757	      0.12836044	      0.68245839	    -17.15775235	      0.00000000	      0.00000000	      0.00000000	      0.00000000	      0.00000000	     -9.68221050	     -3.06068413	     -5.15943841	     29.02280361	     32.10703190	      0.00000000	      5.00000014	     -2.41837881	     -7.29652641	     -1.11682543	     40.66742778	     47.67919252	      0.00000000	      5.00000014
     23.80000000	      0.44235485	     -1.42372988	     13.71218734	      2.93491199	      0.83258268	      0.35620282	     15.41637776	      2.29512781	    -17.13441088	     16.03336389	      0.27983499	      0.52694445	    -19.11912095	      0.00000000	      1.27959080	     -7.84393743	      6.89380171	     50.82242252	      0.88701861	     -5.61504415	     -8.31724010	      0.00000000	      0.01656622	     -0.00342040	     -2.56978629	      0.03076512	     -0.00454913	     -2.73039793	      0.02721664	     -0.00831636	     -2.73039793	      0.01893353	     -0.00831636	     -2.24856300	      0.01538339	     -0.00697488	     -2.08795136	      0.00946594	     -0.00529820	     -1.92733972	      0.11833083	     -0.03869226	    -14.29238041	      0.00000000	      0.00000000	      0.00000000	      0.00000000	      0.00000000	     -8.92473520	     -0.97323407	    -11.98481541	     28.48655954	     30.42989208	      0.00000000	      5.00000014	     -3.85345661	     -8.00211987	      2.21778376	     38.94035621	     48.21534588	      0.00000000	      5.00000014
     23.83333333	      0.32479695	     -1.13567354	     12.34106821	      2.96110445	      0.83398936	      0.36136500	     13.65833457	      3.10525325	    -15.94405330	     15.96231825	      0.27859501	      2.29023044	    -19.08969011	      0.00000000	      6.04585742	     -7.09801226	      6.39407704	     57.17253571	      0.99784899	     -8.50877142	     -9.91771490	      0.00000000	      0.01658665	     -0.04962077	     -1.97368064	      0.03080307	     -0.06599563	     -2.09703568	      0.02725021	     -0.12064794	     -2.09703568	      0.01895688	     -0.12064794	     -1.72697056	      0.01540236	     -0.10118668	     -1.60361552	      0.00947761	     -0.07686257	     -1.48026048	      0.11847680	     -0.56132009	    -10.97701960	      0.00000000	      0.00000000	      0.00000000	      0.00000000	      0.00000000	     -8.28150446	     -0.34088912	    -13.07694903	     28.66810956	     30.18637260	      0.00000000	      5.00000014	     -5.21007413	     -7.96655097	      2.65967177	     37.67994329	     48.25182752	      0.00000000	      5.00000014
